<svg version="1.0" xmlns="http://www.w3.org/2000/svg"
 width="1000.000000pt" height="1000.000000pt" viewBox="0 0 1000.000000 1000.000000"
 preserveAspectRatio="xMidYMid meet">
<g transform="translate(0.000000,1000.000000) scale(0.100000,-0.100000)"
fill="#000000" stroke="none">
<path d="M4833 9555 c-39 -7 -102 -23 -140 -35 -83 -27 -226 -95 -243 -115 -7
-8 -17 -15 -23 -15 -14 0 -79 -57 -217 -188 l-118 -114 -142 52 c-78 28 -158
54 -177 56 -20 3 -40 7 -45 10 -5 3 -47 11 -94 18 -376 56 -754 -112 -973
-431 -26 -38 -53 -84 -61 -103 -7 -19 -21 -47 -31 -61 -10 -14 -21 -37 -24
-51 -6 -24 -9 -25 -118 -32 -105 -6 -244 -32 -312 -59 -39 -16 -192 -94 -208
-106 -6 -6 -39 -32 -72 -58 -115 -91 -204 -203 -272 -340 -49 -100 -70 -165
-84 -258 -5 -33 -14 -85 -19 -116 -6 -30 -10 -67 -10 -82 0 -17 -7 -30 -17
-33 -10 -4 -55 -24 -100 -45 -44 -22 -86 -39 -92 -39 -6 0 -11 -4 -11 -9 0 -5
-14 -14 -30 -21 -16 -7 -30 -16 -30 -21 0 -4 -9 -11 -21 -14 -35 -11 -203
-185 -252 -261 -112 -171 -168 -358 -167 -559 0 -153 14 -220 101 -469 l60
-169 -103 -108 c-123 -128 -178 -193 -178 -206 0 -6 -7 -16 -15 -23 -20 -17
-80 -142 -110 -230 -88 -259 -68 -526 61 -787 19 -39 41 -77 49 -83 8 -7 15
-17 15 -23 0 -14 57 -79 188 -217 l114 -118 -47 -128 c-139 -380 -132 -670 24
-952 98 -178 284 -358 431 -416 25 -10 52 -23 60 -31 8 -7 29 -17 45 -22 l30
-10 12 -129 c7 -71 17 -136 22 -144 4 -9 12 -31 16 -49 7 -33 31 -94 63 -161
63 -130 203 -292 328 -376 57 -39 201 -114 218 -114 4 0 22 -6 39 -14 36 -17
168 -42 271 -52 62 -6 69 -9 77 -33 5 -14 27 -60 49 -101 22 -41 45 -86 52
-100 7 -14 17 -30 23 -36 5 -6 17 -22 25 -35 21 -33 157 -170 207 -208 83 -63
257 -143 363 -167 58 -13 63 -14 110 -20 180 -24 355 3 600 94 l135 49 132
-126 c150 -144 216 -201 230 -201 6 0 16 -7 23 -15 17 -20 142 -80 230 -110
259 -88 526 -68 787 61 39 19 77 41 83 49 7 8 17 15 23 15 14 0 79 57 217 188
l118 114 142 -52 c78 -28 158 -54 177 -56 20 -3 40 -7 45 -10 5 -3 47 -11 94
-18 376 -56 753 111 973 431 26 38 55 88 65 113 10 25 24 52 31 60 7 8 19 35
26 59 7 23 18 44 23 46 6 1 77 12 158 24 81 12 160 28 175 36 15 8 34 15 41
15 28 0 177 83 250 139 218 166 359 402 392 656 6 44 13 108 17 142 5 52 9 64
27 69 11 4 32 14 46 24 14 9 41 23 60 30 155 62 357 267 448 454 12 26 31 71
42 100 16 45 22 66 37 126 12 48 18 128 17 225 -1 117 -7 175 -24 219 -5 15
-10 37 -10 49 0 12 -21 80 -47 150 l-46 128 124 129 c141 146 199 213 199 227
0 6 7 16 15 23 20 17 80 142 110 230 88 259 68 526 -61 787 -19 39 -41 77 -49
83 -8 7 -15 17 -15 23 0 14 -57 79 -188 217 l-114 118 47 128 c121 331 131
557 36 824 -40 111 -151 285 -232 360 -78 73 -109 100 -114 100 -3 0 -27 15
-53 33 -26 18 -63 39 -82 47 -19 7 -46 21 -60 31 -14 9 -44 22 -67 29 l-41 13
-5 61 c-13 165 -40 297 -83 396 -68 159 -183 307 -322 413 -65 50 -168 111
-203 122 -13 4 -37 13 -54 20 -62 28 -194 54 -304 61 l-113 7 -14 36 c-8 20
-19 43 -24 51 -6 8 -19 34 -30 58 -81 177 -258 356 -445 450 -72 36 -189 76
-267 92 -127 25 -330 17 -447 -19 -19 -6 -36 -9 -38 -7 -2 2 -68 -20 -146 -49
l-142 -53 -107 102 c-129 122 -192 176 -205 176 -6 0 -16 7 -23 15 -17 20
-142 80 -230 110 -155 53 -335 68 -487 40z m329 -189 c15 -4 39 -11 53 -16 14
-5 25 -7 25 -4 0 3 6 2 13 -3 6 -4 15 -8 20 -9 4 -1 9 -3 12 -4 3 -1 8 -3 13
-4 20 -5 94 -44 152 -82 61 -39 229 -199 219 -207 -5 -5 -314 -117 -322 -117
-3 0 -34 13 -69 29 -63 30 -77 34 -173 51 -137 24 -314 -11 -436 -86 l-36 -22
-167 60 -167 61 93 94 c90 91 179 158 263 198 22 11 43 20 48 21 4 1 9 2 12 3
3 0 8 1 13 2 4 0 13 5 20 11 6 6 12 8 12 4 0 -3 12 -1 27 5 15 6 46 13 68 16
22 3 42 7 45 10 6 6 226 -3 262 -11z m1478 -316 c143 -29 314 -123 410 -226
88 -95 170 -220 170 -260 0 -12 -35 -14 -196 -14 l-197 0 -54 36 c-81 53 -189
100 -267 114 -154 28 -345 -8 -458 -87 -26 -18 -52 -33 -57 -33 -5 0 -11 -6
-13 -12 -4 -10 -95 -14 -396 -18 l-390 -5 -25 -23 c-14 -13 -28 -35 -31 -48
-8 -29 18 -89 42 -101 9 -4 564 -11 1232 -14 844 -4 1231 -9 1268 -17 128 -27
250 -89 361 -183 128 -110 215 -251 260 -424 21 -78 21 -97 21 -1278 0 -1333
-4 -1254 65 -1277 19 -6 42 -10 52 -8 15 3 59 -109 290 -742 149 -410 272
-754 273 -765 11 -151 8 -261 -12 -337 -50 -202 -170 -378 -331 -485 -61 -41
-119 -73 -133 -73 -2 0 -4 97 -4 215 l0 216 36 31 c58 51 87 120 87 203 -1 87
-18 129 -77 191 l-46 48 0 552 c0 616 1 607 -66 639 -40 19 -74 12 -106 -22
l-23 -25 -5 -1241 c-4 -882 -8 -1248 -16 -1262 -6 -11 -14 -35 -17 -53 -11
-56 -84 -194 -142 -267 -31 -38 -88 -96 -128 -128 -76 -61 -209 -132 -267
-143 -19 -4 -41 -12 -49 -18 -20 -16 -5398 -16 -5432 0 -13 7 -44 17 -68 24
-104 28 -245 122 -343 230 -98 106 -164 242 -198 410 -8 40 -10 763 -8 2680 3
2429 5 2630 21 2692 9 37 21 76 25 85 5 10 20 40 33 68 64 133 186 269 304
342 31 19 121 63 129 63 5 0 22 7 39 15 18 8 73 21 122 30 78 13 252 15 1263
15 1017 0 1177 2 1202 15 36 19 55 70 40 110 -6 15 -9 29 -8 30 12 12 1472
536 1502 540 21 2 41 6 43 9 9 9 210 -1 273 -14z m-3015 -14 c50 -8 1025 -355
1025 -366 0 -3 -71 -31 -157 -63 l-158 -57 -337 0 c-199 0 -338 4 -338 9 0 5
-22 31 -49 58 -115 115 -302 104 -410 -24 l-35 -43 -208 0 c-148 0 -208 3
-208 11 0 15 61 123 72 127 4 2 8 9 8 16 0 17 140 158 192 194 177 121 386
169 603 138z m1420 -225 c-6 -6 -30 -15 -55 -21 -35 -10 -52 -9 -75 1 l-30 12
30 7 c46 11 141 12 130 1z m-3596 -1723 l0 -203 -47 -31 c-54 -35 -96 -91
-114 -149 -14 -49 -13 -139 3 -180 19 -46 76 -113 120 -138 l39 -22 -1 -715
c0 -602 -2 -709 -14 -680 -146 391 -498 1373 -506 1412 -14 77 -12 222 5 303
40 188 135 350 277 470 61 51 193 126 237 135 1 0 2 -91 1 -202z m7168 136
c37 -20 70 -40 71 -45 2 -5 10 -9 17 -9 7 0 51 -37 97 -83 153 -153 234 -332
243 -543 7 -147 -9 -206 -209 -754 -103 -283 -191 -518 -195 -522 -4 -4 -32
63 -64 150 l-57 157 0 195 0 195 30 35 c45 53 45 53 59 88 7 17 17 32 20 32
12 0 49 121 60 192 12 86 6 183 -18 280 -12 51 -73 169 -116 225 l-35 46 0
198 c0 165 2 199 14 199 8 0 45 -16 83 -36z m627 -1774 c23 -36 47 -76 54 -90
16 -35 34 -85 30 -86 -2 0 3 -8 11 -17 7 -10 11 -17 7 -17 -3 0 -1 -12 5 -27
18 -47 24 -104 24 -213 0 -109 -6 -166 -24 -213 -6 -15 -8 -27 -5 -27 3 0 2
-6 -3 -12 -4 -7 -8 -15 -9 -18 -1 -9 -24 -64 -36 -90 -36 -73 -108 -166 -201
-258 -88 -88 -105 -101 -111 -85 -4 10 -41 110 -82 222 -69 189 -73 205 -57
216 10 7 21 11 24 9 4 -2 12 3 19 11 7 8 18 15 24 15 18 0 70 60 92 105 14 30
19 62 19 125 0 63 -5 95 -19 125 -22 45 -74 105 -92 105 -6 0 -17 7 -24 15 -7
8 -16 12 -21 9 -20 -12 -6 36 68 237 l76 210 95 -93 c51 -51 113 -122 136
-158z m-8205 30 c39 -107 71 -200 71 -208 0 -7 -8 -15 -17 -19 -24 -8 -93 -74
-93 -89 0 -6 -7 -17 -15 -24 -9 -7 -13 -15 -10 -18 3 -3 0 -11 -6 -19 -6 -7
-9 -13 -6 -13 3 0 1 -18 -4 -40 -10 -44 1 -110 28 -170 19 -40 71 -100 89
-100 6 0 17 -7 24 -15 7 -8 16 -13 20 -10 4 3 12 -1 17 -8 7 -8 -15 -81 -70
-230 l-80 -218 -95 93 c-83 83 -116 122 -159 193 -16 27 -53 103 -53 109 0 2
-4 15 -9 28 -5 13 -9 25 -9 28 0 3 -6 18 -12 35 -19 49 -25 104 -25 215 0 109
6 166 24 213 6 15 8 27 5 27 -4 0 -2 6 3 13 6 6 16 30 23 52 14 42 49 109 84
160 20 30 198 216 202 212 1 -1 34 -90 73 -197z m168 -460 c22 -61 22 -90 -1
-90 -15 0 -51 38 -59 63 -7 19 16 87 30 87 4 0 18 -27 30 -60z m7636 -20 c0
-32 -45 -90 -70 -90 -29 0 -28 64 3 139 l15 35 26 -26 c17 -18 26 -38 26 -58z
m-7446 -501 l58 -154 3 -337 3 -338 -43 -42 c-67 -66 -98 -126 -99 -196 -3
-98 28 -169 100 -234 l41 -37 0 -205 c0 -184 -2 -206 -16 -206 -18 0 -127 59
-132 72 -2 4 -9 8 -16 8 -18 0 -158 140 -195 195 -89 132 -139 280 -146 430
-7 146 11 210 187 695 198 541 187 514 193 508 2 -2 30 -74 62 -159z m1748
-3035 c54 -107 232 -157 351 -99 48 23 124 95 124 117 0 4 312 8 693 8 l692
-1 -670 -245 c-707 -259 -759 -274 -903 -268 -98 4 -145 13 -230 41 -136 46
-220 99 -327 207 -80 81 -124 144 -157 224 l-18 42 217 -2 c208 -3 218 -4 228
-24z m3201 -5 c41 -80 138 -139 227 -140 106 -2 185 39 247 125 l33 46 208 0
208 0 -14 -40 c-16 -45 -65 -133 -77 -138 -4 -2 -8 -9 -8 -16 0 -15 -119 -140
-170 -178 -128 -97 -294 -156 -453 -163 -151 -6 -207 9 -757 209 -283 103
-521 191 -528 195 -9 5 48 30 150 68 l163 61 377 1 377 1 17 -31z m-1329 -223
c29 -10 55 -21 58 -25 9 -16 -45 -54 -75 -54 -32 0 -90 45 -90 69 0 15 30 35
45 30 6 -2 34 -11 62 -20z m-275 -108 c-1 -3 5 -12 13 -18 8 -7 15 -18 15 -24
0 -18 60 -70 105 -92 56 -27 194 -27 250 0 45 22 105 74 105 92 0 6 7 17 15
24 8 7 12 16 9 21 -12 20 36 6 237 -68 l210 -76 -93 -95 c-83 -83 -122 -116
-193 -159 -27 -16 -103 -53 -109 -53 -2 0 -17 -5 -33 -11 -15 -6 -30 -11 -33
-11 -3 0 -16 -5 -30 -10 -85 -32 -335 -32 -420 0 -14 5 -29 11 -35 12 -5 1
-20 6 -33 11 -13 5 -26 9 -28 9 -14 0 -102 48 -169 92 -42 28 -252 235 -244
241 2 2 103 40 224 84 214 78 220 79 229 59 5 -12 9 -24 8 -28z"/>
<path d="M7245 8031 c-281 -58 -493 -283 -523 -553 -23 -209 29 -382 155 -519
91 -98 165 -147 288 -192 51 -19 81 -22 206 -22 94 0 151 4 160 11 8 7 28 15
45 18 45 10 156 69 190 102 7 6 25 21 40 35 79 67 157 196 190 314 25 91 25
245 0 330 -33 112 -86 203 -166 285 -130 133 -258 190 -440 196 -58 1 -123 -1
-145 -5z m188 -186 c94 -18 157 -45 217 -94 62 -49 120 -124 135 -172 4 -13
12 -29 17 -36 5 -6 12 -43 17 -82 8 -76 -2 -205 -17 -224 -5 -7 -13 -23 -17
-37 -11 -36 -57 -100 -106 -148 -60 -57 -140 -98 -234 -117 -72 -15 -85 -15
-158 0 -144 29 -252 105 -325 229 -61 104 -77 232 -43 345 29 95 53 135 126
208 75 74 124 100 230 123 44 10 80 18 80 19 0 1 35 -6 78 -14z"/>
<path d="M7300 7663 c-90 -30 -150 -81 -188 -156 -33 -66 -31 -175 4 -242 71
-134 225 -191 356 -131 90 41 135 94 163 193 17 59 17 65 -1 129 -24 88 -88
161 -169 192 -53 20 -130 27 -165 15z m128 -216 c34 -32 30 -88 -9 -121 -17
-14 -39 -26 -49 -26 -75 0 -116 85 -70 143 32 40 86 42 128 4z"/>
<path d="M2249 7961 c-71 -23 -137 -81 -172 -151 -31 -63 -31 -178 1 -235 30
-56 60 -88 111 -121 41 -27 52 -29 140 -29 84 0 101 3 136 24 34 21 70 54 104
97 13 16 41 119 41 151 0 50 -29 125 -66 169 -55 67 -112 97 -198 100 -39 2
-83 0 -97 -5z m143 -211 c26 -27 30 -36 24 -68 -6 -38 -34 -67 -73 -78 -33 -9
-89 29 -96 66 -19 93 78 146 145 80z"/>
<path d="M4655 7354 c-219 -33 -262 -44 -450 -106 -33 -11 -74 -27 -92 -34
-17 -8 -33 -14 -36 -14 -13 0 -189 -88 -267 -133 -308 -181 -493 -350 -758
-692 -75 -97 -272 -472 -272 -517 0 -6 -6 -24 -14 -41 -8 -18 -23 -63 -34
-102 -78 -263 -101 -420 -100 -690 0 -406 72 -709 259 -1087 64 -130 225 -369
309 -459 292 -312 456 -432 863 -631 21 -10 43 -18 50 -18 7 0 23 -6 37 -13
22 -12 54 -22 225 -74 217 -66 628 -92 905 -59 152 19 362 63 415 87 11 5 40
15 65 23 91 29 138 49 265 111 121 60 309 175 380 232 17 13 48 38 70 56 185
149 383 372 509 574 50 78 149 268 175 333 34 87 53 138 62 170 5 19 14 44 19
55 12 26 38 131 55 225 8 41 19 98 24 125 18 81 25 445 12 580 -18 185 -55
362 -113 529 -32 96 -41 117 -82 208 -14 31 -26 59 -26 62 0 2 -22 43 -50 91
-27 48 -50 88 -50 90 0 4 -43 71 -57 90 -5 6 -21 30 -38 55 -167 251 -491 545
-767 695 -73 40 -246 125 -256 125 -4 1 -25 9 -47 20 -22 11 -47 20 -55 20 -8
0 -27 6 -42 14 -15 8 -42 17 -60 21 -18 3 -42 10 -53 15 -34 16 -153 40 -325
65 -221 32 -442 32 -655 -1z m640 -184 c162 -28 221 -40 244 -49 14 -5 67 -22
116 -37 50 -15 94 -31 100 -35 5 -5 16 -9 24 -9 41 0 368 -174 456 -242 6 -5
44 -35 87 -68 207 -160 399 -381 545 -625 86 -145 209 -458 228 -580 4 -22 11
-51 15 -65 12 -32 37 -235 46 -360 9 -131 -20 -411 -60 -583 -24 -104 -77
-267 -103 -317 -7 -14 -13 -29 -13 -33 0 -7 -30 -68 -98 -202 -31 -61 -128
-203 -197 -290 -172 -215 -375 -390 -630 -542 -44 -26 -203 -102 -260 -123
-33 -12 -69 -27 -80 -31 -63 -28 -206 -65 -325 -85 -47 -8 -105 -19 -130 -24
-173 -37 -571 -13 -800 48 -138 38 -185 51 -205 60 -11 5 -47 20 -80 32 -79
30 -256 120 -323 165 -30 19 -56 35 -59 35 -2 0 -46 31 -96 69 -167 124 -300
256 -428 423 -44 57 -83 108 -88 114 -17 22 -129 221 -150 269 -12 28 -27 58
-32 68 -15 27 -80 206 -96 262 -12 42 -40 164 -59 255 -2 14 -10 98 -18 187
-10 132 -10 192 0 330 7 92 20 197 28 233 8 36 18 81 21 100 12 59 62 220 98
310 54 136 180 366 249 455 5 6 36 45 69 88 62 80 218 242 299 310 56 48 236
177 246 177 4 0 15 6 23 14 26 23 199 112 296 151 125 51 313 109 390 120 22
3 58 11 80 16 108 27 533 33 670 9z"/>
<path d="M4755 6931 c-11 -5 -49 -11 -85 -15 -82 -9 -337 -76 -365 -96 -5 -4
-21 -11 -35 -15 -14 -4 -59 -23 -100 -43 -246 -114 -493 -304 -653 -502 -34
-41 -64 -77 -67 -80 -17 -15 -190 -292 -190 -305 0 -3 -11 -28 -24 -57 -13
-29 -33 -80 -46 -113 -12 -33 -26 -69 -31 -80 -22 -53 -53 -189 -79 -350 -12
-72 -12 -440 0 -510 29 -177 39 -221 82 -350 96 -288 250 -536 468 -754 91
-91 112 -109 210 -181 255 -188 468 -281 800 -349 116 -24 341 -34 499 -21 86
6 174 16 196 21 22 4 69 15 105 23 180 39 392 130 584 249 84 52 222 163 304
245 99 98 126 130 207 237 25 33 49 65 55 72 5 7 10 15 10 17 0 3 16 31 35 61
29 45 90 166 136 270 42 97 98 310 120 460 13 88 13 417 0 510 -27 196 -73
356 -152 535 -44 99 -161 303 -189 330 -3 3 -13 17 -23 32 -49 77 -203 237
-327 339 -36 30 -66 57 -68 62 -2 4 -8 7 -13 7 -5 0 -30 15 -56 34 -49 34
-240 146 -250 146 -3 0 -24 9 -47 19 -66 31 -144 61 -156 61 -7 0 -26 6 -43
14 -37 17 -99 32 -212 52 -44 7 -102 18 -128 24 -57 12 -443 12 -472 1z m537
-210 c277 -51 529 -162 743 -329 100 -78 205 -175 205 -191 0 -5 -19 -14 -42
-19 -24 -5 -128 -33 -233 -61 -104 -28 -226 -61 -270 -73 -44 -11 -100 -27
-125 -34 -25 -7 -90 -25 -145 -39 -55 -15 -134 -36 -175 -47 -41 -11 -109 -29
-150 -40 -75 -19 -105 -27 -255 -68 -203 -55 -232 -63 -259 -68 -28 -5 -29 -4
-22 34 4 22 22 95 41 164 19 69 74 273 122 455 83 307 90 330 113 337 44 13
339 0 452 -21z m-715 -109 c-10 -37 -24 -89 -32 -117 -26 -91 -53 -195 -220
-820 -91 -341 -170 -631 -176 -644 -9 -23 -21 -12 -252 220 -134 134 -296 298
-360 365 l-117 121 15 36 c27 66 117 210 184 297 238 309 551 516 946 625 25
7 28 -18 12 -83z m1868 -664 c96 -151 178 -349 224 -539 50 -214 53 -520 6
-742 -14 -65 -28 -125 -33 -132 -5 -10 -178 156 -620 598 -337 337 -613 617
-612 622 1 9 186 61 635 180 72 19 168 45 215 59 133 37 131 38 185 -46z
m-1021 -497 c245 -246 249 -250 238 -278 -6 -15 -18 -55 -26 -88 -7 -33 -24
-96 -36 -140 -48 -174 -85 -315 -101 -381 -9 -38 -13 -41 -67 -57 -31 -10 -73
-20 -92 -23 -19 -4 -43 -11 -52 -15 -9 -5 -45 -15 -80 -23 -35 -8 -97 -24
-138 -36 -41 -12 -100 -27 -130 -35 -30 -7 -72 -19 -94 -25 -37 -11 -40 -11
-78 27 -37 35 -449 449 -456 457 -5 6 20 129 28 141 4 6 13 39 19 74 7 35 17
71 21 80 5 9 14 36 19 61 10 45 41 166 59 230 6 19 13 47 16 62 7 32 31 47
101 64 28 7 84 22 125 33 41 11 136 37 210 57 74 20 155 42 180 49 25 7 54 14
65 14 14 1 102 -80 269 -248z m-1467 -543 c337 -337 613 -616 613 -620 0 -4
-19 -12 -42 -18 -24 -6 -74 -20 -113 -31 -113 -31 -436 -117 -625 -165 -96
-24 -183 -47 -192 -50 -46 -14 -217 331 -281 566 -70 255 -70 589 0 863 9 37
19 67 22 67 3 0 281 -276 618 -612z m2593 -606 c0 -26 -90 -187 -158 -281
-117 -165 -269 -312 -462 -446 -116 -81 -374 -194 -522 -229 -35 -8 -35 -4 -2
121 14 54 32 121 39 148 7 28 23 84 34 125 11 41 29 109 40 150 11 41 27 102
36 135 9 33 25 92 35 130 27 102 76 286 106 395 14 52 32 118 39 145 56 217
77 293 86 314 10 24 26 9 370 -335 197 -197 359 -365 359 -372z m-1263 -507
l-132 -490 -75 -8 c-112 -11 -309 6 -455 39 -323 73 -598 220 -829 442 l-69
66 44 12 c24 6 78 21 119 33 41 12 98 28 125 36 28 7 86 23 130 35 44 12 114
31 155 42 128 34 172 46 250 67 41 11 110 29 153 40 112 30 214 58 282 76 33
9 92 25 130 35 39 10 97 26 130 36 111 30 160 41 167 35 3 -3 -53 -226 -125
-496z"/>
<path d="M2246 2633 c-30 -8 -91 -49 -121 -80 -72 -76 -93 -210 -48 -304 46
-97 146 -159 255 -159 107 0 216 68 248 155 7 17 16 38 21 47 30 58 -6 198
-67 263 -55 58 -101 78 -189 81 -44 2 -89 0 -99 -3z m128 -194 c78 -46 47
-158 -44 -158 -43 0 -68 18 -79 55 -11 42 4 86 36 106 37 22 46 22 87 -3z"/>
<path d="M7555 2631 c-75 -25 -147 -93 -172 -163 -7 -18 -12 -64 -12 -103 -1
-109 43 -186 137 -241 41 -25 57 -28 132 -29 98 0 138 15 196 74 61 62 79 105
79 196 0 122 -42 193 -149 249 -40 21 -62 26 -120 25 -39 -1 -80 -4 -91 -8z
m125 -186 c85 -44 55 -165 -40 -165 -30 0 -44 6 -64 31 -36 43 -33 75 10 115
40 38 52 41 94 19z"/>
</g>
</svg>
